<?xml version="1.0" standalone="no"?>
<!DOCTYPE svg PUBLIC "-//W3C//DTD SVG 20010904//EN"
 "http://www.w3.org/TR/2001/REC-SVG-20010904/DTD/svg10.dtd">
<svg version="1.0" xmlns="http://www.w3.org/2000/svg"
 width="500.000000pt" height="500.000000pt" viewBox="0 0 500.000000 500.000000"
 preserveAspectRatio="xMidYMid meet">

<g transform="translate(0.000000,500.000000) scale(0.100000,-0.100000)"
fill="#000000" stroke="none">
<path d="M0 2500 l0 -2500 2500 0 2500 0 0 2500 0 2500 -2500 0 -2500 0 0
-2500z m1310 351 c23 -44 14 -58 -47 -69 -32 -6 -60 -9 -61 -7 -2 2 8 24 23
49 30 51 66 62 85 27z m434 -2 c56 -44 17 -119 -61 -119 -41 0 -43 -1 -43 -30
0 -23 -4 -30 -20 -30 -19 0 -20 7 -20 100 l0 100 59 0 c44 0 65 -5 85 -21z
m150 -46 c12 -34 24 -64 27 -67 3 -3 15 26 28 64 17 54 26 70 41 70 15 0 24
-16 41 -69 13 -39 26 -68 29 -66 4 2 15 32 25 66 17 55 37 81 51 66 4 -3 -8
-49 -26 -102 -28 -84 -35 -96 -53 -93 -16 2 -26 18 -41 66 -11 34 -22 62 -26
62 -3 0 -16 -29 -29 -66 -19 -54 -27 -65 -44 -62 -16 2 -27 23 -53 101 -32 96
-32 98 -12 95 16 -2 26 -18 42 -65z m411 4 l50 -62 3 63 c3 54 6 62 22 62 19
0 20 -7 20 -100 0 -89 -2 -100 -17 -100 -10 1 -40 30 -68 66 l-50 64 -3 -65
c-3 -57 -5 -65 -22 -65 -19 0 -20 7 -20 100 0 89 2 100 18 100 9 0 40 -28 67
-63z m413 -3 l39 -65 39 65 c24 43 45 66 56 66 16 0 18 -11 18 -100 0 -93 -1
-100 -20 -100 -16 0 -19 8 -22 63 l-3 62 -30 -52 c-16 -29 -33 -53 -38 -53 -4
0 -22 24 -40 53 l-32 52 -3 -62 c-2 -47 -7 -63 -17 -63 -12 0 -15 19 -15 100
0 123 12 129 68 34z m413 37 c23 -23 29 -38 29 -71 0 -61 -41 -100 -105 -100
-64 0 -105 39 -105 100 0 61 41 100 105 100 38 0 52 -5 76 -29z m160 -47 l34
-77 31 74 c23 56 36 75 52 77 20 3 19 -3 -22 -95 -57 -132 -70 -134 -120 -19
-52 122 -51 116 -29 116 15 0 28 -19 54 -76z m239 -24 c0 -93 -1 -100 -20
-100 -19 0 -20 7 -20 100 0 93 1 100 20 100 19 0 20 -7 20 -100z m240 86 c0
-11 -15 -16 -52 -18 -46 -3 -53 -6 -56 -25 -3 -21 0 -23 47 -23 38 0 51 -4 51
-14 0 -11 -14 -16 -47 -18 -44 -3 -48 -5 -48 -28 0 -23 4 -25 58 -28 42 -2 57
-7 57 -17 0 -12 -16 -15 -75 -15 l-75 0 0 100 0 100 70 0 c54 0 70 -3 70 -14z
m218 -9 c3 -15 -2 -17 -37 -11 -74 12 -92 -35 -19 -50 96 -19 89 -116 -9 -116
-52 0 -84 15 -77 35 4 10 12 12 31 4 35 -13 69 -11 82 5 14 17 6 24 -59 46
-38 13 -46 20 -48 43 -6 47 22 68 82 65 39 -2 52 -7 54 -21z m-2830 -38 c-27
-48 -37 -54 -101 -63 -48 -7 -48 -7 -36 16 38 73 54 84 127 87 l33 1 -23 -41z
m-168 7 c0 -10 -45 -81 -55 -88 -5 -4 -22 -8 -36 -8 -22 0 -28 5 -31 30 -3 16
-1 35 2 41 11 16 120 39 120 25z m1570 -66 c0 -16 -7 -20 -34 -20 -36 0 -52
12 -41 30 3 6 22 10 41 10 27 0 34 -4 34 -20z m-1230 -199 c0 -114 -3 -143
-16 -155 -24 -24 -389 -24 -416 1 -16 14 -18 33 -18 155 l0 138 225 0 225 0 0
-139z m810 -96 c17 -20 5 -45 -20 -45 -11 0 -23 -7 -26 -15 -12 -30 -24 -14
-24 30 0 43 1 45 29 45 16 0 34 -7 41 -15z m119 1 c9 -11 9 -20 2 -34 -7 -13
-7 -22 1 -30 8 -8 8 -12 1 -12 -6 0 -16 7 -23 15 -7 8 -16 15 -21 15 -5 0 -9
-7 -9 -15 0 -8 -4 -15 -10 -15 -5 0 -10 20 -10 45 0 43 1 45 29 45 16 0 34 -6
40 -14z m129 2 c7 -7 12 -21 12 -33 0 -12 -5 -26 -12 -33 -7 -7 -21 -12 -33
-12 -12 0 -26 5 -33 12 -7 7 -12 21 -12 33 0 12 5 26 12 33 7 7 21 12 33 12
12 0 26 -5 33 -12z m138 -13 c20 -30 -6 -65 -47 -65 -28 0 -29 2 -29 46 0 45
0 45 31 42 18 -2 38 -12 45 -23z m76 -43 c16 -19 38 4 38 39 0 16 5 29 10 29
14 0 12 -53 -3 -74 -8 -11 -23 -17 -38 -14 -21 3 -24 8 -25 48 -1 28 0 34 3
15 3 -16 9 -36 15 -43z m174 57 c3 -6 -1 -10 -12 -9 -36 4 -44 0 -44 -25 0
-25 8 -29 44 -25 11 1 15 -3 12 -9 -9 -15 -49 -14 -64 1 -29 29 -7 78 34 78
13 0 26 -5 30 -11z m102 -3 c-11 -8 -18 -26 -18 -45 0 -17 -4 -31 -10 -31 -5
0 -10 14 -10 31 0 19 -7 37 -17 45 -16 12 -13 13 27 13 40 0 43 -1 28 -13z
m59 -53 c-2 -16 -4 -5 -4 22 0 28 2 40 4 28 2 -13 2 -35 0 -50z m131 55 c28
-28 7 -78 -33 -78 -27 0 -45 18 -45 45 0 27 18 45 45 45 12 0 26 -5 33 -12z
m97 -15 l24 -28 1 28 c0 15 5 27 10 27 6 0 10 -20 10 -45 0 -51 -10 -56 -38
-20 -25 32 -30 31 -35 -2 -2 -17 -5 -10 -6 20 0 26 1 47 4 47 3 0 17 -12 30
-27z m-1715 -116 c0 -2 -17 -19 -37 -38 l-38 -34 34 38 c33 34 41 42 41 34z
m-670 -32 c13 -14 21 -25 18 -25 -2 0 -15 11 -28 25 -13 14 -21 25 -18 25 2 0
15 -11 28 -25z m61 -52 c13 -16 12 -17 -3 -4 -10 7 -18 15 -18 17 0 8 8 3 21
-13z m44 -31 c-3 -3 -11 0 -18 7 -9 10 -8 11 6 5 10 -3 15 -9 12 -12z m168
-49 c-7 -2 -21 -2 -30 0 -10 3 -4 5 12 5 17 0 24 -2 18 -5z m120 0 c-7 -2 -19
-2 -25 0 -7 3 -2 5 12 5 14 0 19 -2 13 -5z"/>
<path d="M1640 2800 l0 -41 36 3 c43 4 65 29 48 56 -6 10 -26 18 -48 20 l-36
3 0 -41z"/>
<path d="M3012 2824 c-16 -11 -22 -25 -22 -54 0 -29 6 -43 22 -54 51 -36 108
-7 108 54 0 42 -26 70 -65 70 -11 0 -31 -7 -43 -16z"/>
<path d="M1062 2608 c-18 -18 -15 -133 3 -148 12 -10 24 -5 65 25 27 20 50 41
50 45 0 12 -43 52 -79 73 -21 12 -31 13 -39 5z"/>
<path d="M2090 2435 c0 -8 9 -15 20 -15 11 0 20 7 20 15 0 8 -9 15 -20 15 -11
0 -20 -7 -20 -15z"/>
<path d="M2210 2434 c0 -9 7 -14 17 -12 25 5 28 28 4 28 -12 0 -21 -6 -21 -16z"/>
<path d="M2337 2448 c-22 -12 -22 -35 1 -46 25 -13 42 -4 42 23 0 27 -19 37
-43 23z"/>
<path d="M2460 2426 c0 -31 14 -40 40 -26 29 16 21 44 -13 48 -23 3 -27 0 -27
-22z"/>
<path d="M3017 2448 c-22 -12 -22 -35 1 -46 25 -13 42 -4 42 23 0 27 -19 37
-43 23z"/>
</g>
</svg>
